<?xml version="1.0" encoding="utf-8"?><svg xmlns="http://www.w3.org/2000/svg" xmlns:xlink="http://www.w3.org/1999/xlink" width="1600" height="768" preserveAspectRatio="xMidYMid" viewBox="0 0 1600 768" style="z-index:1;margin-right:-2px;display:block;background-color:rgb(255, 255, 255);animation-play-state:paused" ><g transform="translate(800,384) scale(1,1) translate(-800,-384)" style="transform:matrix(1, 0, 0, 1, 0, 0);animation-play-state:paused" ><linearGradient id="lg-0.36669427242680874" x1="0" x2="1" y1="0" y2="0" style="animation-play-state:paused" ><stop stop-color="#ff00ff" offset="0" style="animation-play-state:paused" ></stop>

  
<stop stop-color="#00ffff" offset="1" style="animation-play-state:paused" ></stop></linearGradient>
<path d="M 1377.6 384 C 1377.6 548.2 1085 728.2 928.4 778.8 C 771.8 829.4 426 859.2 329.2 726.2 C 232.4 593.2 258 193.8 355 60.8 C 452 -72.2 777 -78.6 933.8 -28 C 1090.6 22.6 1377.6 219.8 1377.6 384" fill="url(#lg-0.36669427242680874)" opacity="0.4" style="opacity:0.4;animation-play-state:paused" ></path>
<path d="M 1413 384 C 1413 564.2 1097.4 715.6 926.2 771.6 C 755 827.6 466.2 849.8 360 704.2 C 253.8 558.6 248.2 205.2 353.6 59.4 C 459 -86.4 752.2 -51.6 923.4 3.6 C 1094.6 58.8 1413 203.8 1413 384" fill="url(#lg-0.36669427242680874)" opacity="0.4" style="opacity:0.4;animation-play-state:paused" ></path>
<path d="M 1365.6 384 C 1365.6 549.4 1101.2 773 943.2 824.4 C 785.2 875.8 479 822.6 381.4 688.2 C 283.8 553.8 235.6 179.4 333.2 45 C 430.8 -89.4 783.6 -103.4 941.6 -52 C 1099.6 -0.599999 1365.6 218.6 1365.6 384" fill="url(#lg-0.36669427242680874)" opacity="0.4" style="opacity:0.4;animation-play-state:paused" ></path>
<path d="M 1443.6 384 C 1443.6 556 1116.4 801.2 953.2 854.6 C 790 908 492.2 819.8 391.4 680.6 C 290.6 541.4 246.8 194.8 347.6 55.6 C 448.4 -83.6 784.8 -126 948 -72.6 C 1111.2 -19.2 1443.6 212 1443.6 384" fill="url(#lg-0.36669427242680874)" opacity="0.4" style="opacity:0.4;animation-play-state:paused" ></path>
<path d="M 1390.2 384 C 1390.2 563.6 1124.4 802.6 953.8 858 C 783.2 913.4 441.8 866.6 336 721.4 C 230.2 576.2 169.2 147.6 275 2.2 C 380.8 -143.2 768.8 -100.8 939.4 -45.4 C 1110 10 1390.2 204.4 1390.2 384" fill="url(#lg-0.36669427242680874)" opacity="0.4" style="opacity:0.4;animation-play-state:paused" ></path></g></svg>